<svg xmlns="http://www.w3.org/2000/svg" width="1920" height="176" fill="none" viewBox="0 0 1920 176" className="absolute left-1/2 h-full w-auto -translate-x-1/2"><path fill="#ECEFF5" d="M1613.24 120.765c79.53-3.225 232.67 6.269 354.28 16.038-4.3 6.99-17.8 13.87-31.21 19.289l-53.78 1.043 45.94-1.04c-27.13.475-463.63-.499-760.62-.421 160.34-13.589 321.15-29.869 445.4-34.908l-.01-.001zM322.135 117.836c90.235 5.521 206.831 23.401 323.135 38.323-215.955-.041-533.39 1.097-553.103.578l33.382 1.137-47.082-1.372-128.447-4.975c60.342-10.566 281.87-39.213 372.115-33.69v-.001z"></path><path fill="#9CC8A1" d="M585 150.848s-7.261-9.645-11.829-11.124c-4.57-1.479-.999 3.617-.999 3.617s-7.37-8.084-10.345-7.285c-2.726.732 0 6.226 0 6.226s-3.071-3.042-6.795-3.042c-3.724 0 2.879 11.391 2.879 11.391l27.089.217z"></path><path fill="#9CC8A1" d="M561.827 150.794s-5.907-14.87-12.054-13.334c-4.981 1.244-2.055 6.894-2.359 6.591-.304-.305-1.415-2.213-5.738-2.213s.077 5.379.077 5.379-7.96-2.137-8.681.883c-.599 2.506 2.748 2.694 2.748 2.694h26.007zM1426 151s5.24-14.444 11.63-12.882c5.19 1.266 1.43 8.998 1.75 8.69.31-.309 3.09-4.924 7.59-4.924s-1.38 6.227-1.38 6.227 9.58-2.927 10.34.147c.62 2.551-2.86 2.742-2.86 2.742H1426z"></path><path fill="#D2EAF4" d="M-40 151h2010c-24 10.624-72.11 19-72.11 19l-29.41-.115L-40 169.678V151z"></path><path fill="#05173E" d="M394.495 150.742h2.026V115.26h-2.026v35.482z"></path><path fill="#9CC8A1" d="M394.978 52l9.977 71.62H385L394.978 52z"></path><path fill="#5BA06A" d="M404.322 119.075l-17.903-5.644.27-1.943 17.337 5.467.296 2.12zM401.172 96.45l-11.866-3.742.27-1.94 11.3 3.56.296 2.121z"></path><path fill="#05173E" d="M420.751 150.029h1.72V130.97h-1.72v19.059z"></path><path fill="#9CC8A1" d="M421.613 94l5.611 45.355H416L421.613 94z"></path><path fill="#5BA06A" d="M425.189 122.904l-8.001 6.864.308-2.488 7.444-6.385.249 2.009zM423.959 112.963l-4.9 1.675.229-1.86 4.46-1.526.211 1.711z"></path><path fill="#9CC8A1" d="M1063 152s8.03-22.222 17.84-19.818c7.95 1.947 2.18 13.843 2.67 13.368.48-.475 4.75-7.574 11.65-7.574 6.89 0-2.12 9.58-2.12 9.58s14.69-4.504 15.85.225c.95 3.925-4.39 4.219-4.39 4.219H1063z"></path><g opacity="0.5" style="mix-blend-mode: luminosity;"><path fill="#FCF5EB" d="M923.877 149.429h4.758V90.517h-4.758v58.912z"></path><path fill="#B6D0D8" d="M928.796 66.932h-33.429v19.323h33.429V66.932z"></path><path fill="#E4E4E4" d="M928.796 66.932h-3.94v19.323h3.94V66.932z"></path><path fill="#2B373C" d="M929.53 66h-35.691v1.862h35.691V66z"></path><path fill="#D3E3F1" d="M904.243 80.726v-10.2h-7.629v10.2h7.629zM913.784 80.725v-10.2h-7.629v10.2h7.629zM923.13 80.726v-10.2h-7.63v10.2h7.63z"></path><path fill="#B6D0D8" d="M986.127 86.255h33.433V66.932h-33.433v19.323z"></path><path fill="#E4E4E4" d="M986.128 86.255h3.939V66.932h-3.939v19.323z"></path><path fill="#B6D0D8" d="M928.873 86.54h-42.251v64.433h42.251V86.54z"></path><path fill="#D3E3F1" d="M905.86 100.707v-10.2h-16.24v10.2h16.24zM905.86 112.541v-10.2h-16.24v10.2h16.24zM905.86 124.375v-10.2h-16.24v10.2h16.24zM905.86 136.21v-10.2h-16.24v10.2h16.24zM905.86 148.043v-10.2h-16.24v10.2h16.24zM923.869 100.707v-10.2h-16.24v10.2h16.24zM923.869 112.541v-10.2h-16.24v10.2h16.24zM923.869 124.375v-10.2h-16.24v10.2h16.24zM923.869 136.209v-10.2h-16.24v10.2h16.24zM923.869 148.043v-10.2h-16.24v10.2h16.24z"></path><path fill="#B6D0D8" d="M986.129 150.972h42.251V86.539h-42.251v64.433z"></path><path fill="#2B373C" d="M986.128 150.972h42.752v-1.536h-42.752v1.536zM886.251 150.972h42.752v-1.536h-42.752v1.536z"></path><path fill="#E4E4E4" d="M986.128 150.972h3.939V86.54h-3.939v64.432z"></path><path fill="#2B373C" d="M985.429 67.863h35.661v-1.862h-35.661v1.862z"></path><path fill="#B6D0D8" d="M928.649 85.79h57.479V72.41h-57.479v13.38zM928.649 150.972h57.479V87.669h-57.479v63.303z"></path><path fill="#D3E3F1" d="M1025.38 100.708v-10.2h-16.24v10.2h16.24zM1025.38 112.541v-10.2h-16.24v10.2h16.24zM1025.38 124.375v-10.2h-16.24v10.2h16.24zM1025.38 136.209v-10.2h-16.24v10.2h16.24zM1025.38 148.044v-10.2h-16.24v10.2h16.24zM1007.37 100.708v-10.2h-16.239v10.2h16.239zM1018.31 80.726v-10.2h-7.63v10.2h7.63zM1008.77 80.725v-10.2h-7.63v10.2h7.63zM999.424 80.726v-10.2h-7.63v10.2h7.63zM1007.37 112.541v-10.2h-16.239v10.2h16.239zM1007.37 124.376v-10.2h-16.239v10.2h16.239zM1007.37 136.209v-10.2h-16.239v10.2h16.239zM1007.37 148.044v-10.2h-16.239v10.2h16.239z"></path><path fill="#FF7768" d="M948.744 151.121h16.492v-16.026h-16.492v16.026z"></path><path fill="#D3E3F1" d="M1010.47 80.888h8.05v-.53h-8.05v.53zM1000.93 80.888h8.05v-.53h-8.05v.53zM991.583 80.888h8.051v-.53h-8.051v.53zM915.387 80.888h8.051v-.53h-8.051v.53zM905.847 80.888h8.05v-.53h-8.05v.53zM896.499 80.888h8.051v-.53h-8.051v.53z"></path><path fill="#fff" d="M1017.6 147.515h9.33l-10.8-57.008h-9.33l10.8 57.008z" opacity="0.5"></path><path fill="#B6D0D8" d="M1025.38 148.508h3V90.506h-3v58.002z"></path><path fill="#fff" d="M1005.6 147.515h5.2L1000 90.507h-5.192l10.792 57.008z" opacity="0.5"></path><path fill="#D3E3F1" d="M990.931 100.707h16.639v-.53h-16.639v.53zM1008.94 112.542h16.64v-.53h-16.64v.53zM990.931 112.542h16.639v-.53h-16.639v.53zM1008.94 124.375h16.64v-.53h-16.64v.53zM990.931 124.375h16.639v-.53h-16.639v.53zM1008.94 136.21h16.64v-.53h-16.64v.53zM990.931 136.21h16.639v-.53h-16.639v.53zM1008.94 148.044h16.64v-.53h-16.64v.53zM990.931 148.044h16.639v-.53h-16.639v.53zM1008.94 100.707h16.64v-.53h-16.64v.53z"></path><path fill="#B6D0D8" d="M1007.37 148.509h1.77V90.441h-1.77v58.068z"></path><path fill="#B6D0D8" d="M990.931 137.844h35.049v-1.635h-35.049v1.635zM990.931 126.01h35.049v-1.635h-35.049v1.635zM990.931 114.175h35.049v-1.635h-35.049v1.635zM990.931 102.341h35.049v-1.634h-35.049v1.634z"></path><path fill="#fff" d="M918.843 147.515h9.329l-10.795-57.008h-9.329l10.795 57.008zM904.088 147.516h5.193l-10.795-57.008h-5.193l10.795 57.008z" opacity="0.5"></path><path fill="#B6D0D8" d="M905.856 148.509h1.767V90.442h-1.767v58.067z"></path><path fill="#B6D0D8" d="M889.414 137.844h35.051v-1.635h-35.051v1.635zM889.414 126.01h35.051v-1.635h-35.051v1.635zM889.414 114.175h35.051v-1.635h-35.051v1.635zM889.414 102.341h35.051v-1.634h-35.051v1.634z"></path><path fill="#fff" d="M1014.71 80.358h2.4l-2.8-9.833h-2.4l2.8 9.833zM1004.78 80.358h1.68l-2.8-9.833h-1.68l2.8 9.833zM997.633 80.358h1.34l-2.8-9.833h-1.339l2.799 9.833zM919.811 80.358h2.404l-2.799-9.833h-2.405l2.8 9.833zM909.883 80.358h1.684l-2.801-9.833h-1.683l2.8 9.833zM902.739 80.358h1.339l-2.8-9.833h-1.339l2.8 9.833z" opacity="0.5"></path><path fill="#D3E3F1" d="M889.449 100.707h16.642v-.53h-16.642v.53zM907.457 112.542H924.1v-.53h-16.643v.53zM889.449 112.542h16.642v-.53h-16.642v.53zM907.457 124.375H924.1v-.53h-16.643v.53zM889.449 124.375h16.642v-.53h-16.642v.53zM907.457 136.21H924.1v-.53h-16.643v.53zM889.449 136.21h16.642v-.53h-16.642v.53zM907.457 148.044H924.1v-.53h-16.643v.53zM889.449 148.044h16.642v-.53h-16.642v.53zM907.457 100.707H924.1v-.53h-16.643v.53zM965.807 103.926v-10.2h-16.241v10.2h16.241zM983.814 103.926v-10.2h-16.241v10.2h16.241z"></path><path fill="#D3E3F1" d="M949.395 103.925h16.642v-.53h-16.642v.53zM947.878 103.926v-10.2h-16.241v10.2h16.241z"></path><path fill="#D3E3F1" d="M931.466 103.925h16.642v-.53h-16.642v.53zM967.403 103.925h16.642v-.53h-16.642v.53zM965.808 117.717v-10.2h-16.241v10.2h16.241zM983.815 117.717v-10.2h-16.241v10.2h16.241z"></path><path fill="#D3E3F1" d="M949.395 117.717h16.642v-.53h-16.642v.53zM947.878 117.717v-10.2h-16.241v10.2h16.241z"></path><path fill="#D3E3F1" d="M931.466 117.717h16.642v-.53h-16.642v.53zM967.403 117.717h16.642v-.53h-16.642v.53z"></path><path fill="#F7EDE7" d="M928.649 76.868h57.479V72.41h-57.479v4.458z" opacity="0.5"></path><path fill="#2B373C" d="M927.379 73.424h60.019v-1.862h-60.019v1.862z"></path><path fill="#FF5B51" d="M956.925 151.121h.132v-16.026h-.132v16.026z"></path><path fill="#FF7768" d="M932.096 150.972h2.98v-15.877h-2.98v15.877zM979.737 150.972h2.98v-15.877h-2.98v15.877z"></path><path fill="#D3E3F1" d="M964.026 147.515v-11.57h-5.904v11.57h5.904zM955.86 147.515v-11.57h-5.904v11.57h5.904z"></path><path fill="#E9F1F8" d="M960.921 147.515h2.578l-2.036-11.57h-2.576l2.034 11.57zM952.637 147.515h2.576l-2.034-11.57h-2.576l2.034 11.57z" opacity="0.2"></path><path fill="#E4E4E4" d="M928.637 87.463h-3.94v63.17h3.94v-63.17z"></path><path fill="#2A4667" d="M978.755 79.817h3.731v-1.43h-3.731v1.43zM981.698 81.997h3.732v-1.43h-3.732v1.43zM979.284 84.143h3.82v-1.21h-3.82v1.21zM976.909 81.898h3.71v-1.21h-3.71v1.21zM954.167 84.136h3.018v-1.08h-3.018v1.08zM952.17 82.373h3.018v-1.081h-3.018v1.08zM969.673 139.973h3.017v-1.081h-3.017v1.081zM967.677 138.211h3.017v-1.081h-3.017v1.081zM937.517 139.445h3.017v-1.081h-3.017v1.081zM936.019 141.413h3.017v-1.08h-3.017v1.08zM940.903 78.887h-3.732v1.43h3.732v-1.43zM929.869 82.704h-1.215v1.43h1.215v-1.43zM931.22 80.414h-2.596v1.43h2.596v-1.43zM939.052 80.767h-3.732v1.43h3.732v-1.43zM966.709 81.242h-3.731v1.43h3.731v-1.43zM968.942 79.099h-3.732v1.43h3.732v-1.43zM940.373 82.933h-3.819v1.21h3.819v-1.21zM946.659 143.418h-3.731v1.43h3.731v-1.43zM944.808 145.297h-3.732v1.43h3.732v-1.43zM946.13 147.464h-3.819v1.21h3.819v-1.21zM971.207 145.142h3.731v-1.43h-3.731v1.43zM973.057 147.02h3.732v-1.43h-3.732v1.43zM971.734 148.968h3.82v-1.21h-3.82v1.21zM943.453 81.011h-3.71v1.21h3.71v-1.21z" opacity="0.3"></path><path fill="#FF7768" d="M932.048 129.569h50.681v-10.917h-50.681v10.917z"></path><path fill="#fff" d="M979.405 103.435h3.054l-5.081-9.71h-3.054l5.081 9.71zM974.787 103.436h3.054l-5.08-9.711h-3.055l5.081 9.711zM961.423 103.435h3.055l-5.08-9.71h-3.054l5.079 9.71zM956.808 103.436h3.054l-5.079-9.711h-3.055l5.08 9.711zM943.445 103.435h3.055l-5.081-9.71h-3.054l5.08 9.71zM938.828 103.435h3.054l-5.081-9.71h-3.054l5.081 9.71zM979.405 117.234h3.054l-5.081-9.711h-3.054l5.081 9.711zM974.787 117.234h3.054l-5.08-9.711h-3.055l5.081 9.711zM961.423 117.234h3.055l-5.08-9.711h-3.054l5.079 9.711zM956.808 117.234h3.054l-5.079-9.711h-3.055l5.08 9.711zM943.445 117.234h3.055l-5.081-9.711h-3.054l5.08 9.711zM938.828 117.234h3.054l-5.081-9.711h-3.054l5.081 9.711z" opacity="0.5"></path><path fill="#2B373C" d="M930.917 135.096h52.943v-4.609h-52.943v4.609zM945.021 85.53H885v2.145h60.021V85.53z"></path><path fill="#2B373C" d="M937.169 87.676H1030V85.53h-92.831v2.146z"></path></g><g opacity="0.5" style="mix-blend-mode: luminosity;"><path fill="#B6D0D8" d="M711.501 111.613h-91.286v39.581h91.286v-39.581z"></path><path fill="#97B2E4" d="M659.834 123.693h-4.128v-6.638a2.064 2.064 0 114.128 0v6.638z"></path><path fill="url(#paint0_linear_9656_68519)" d="M657.77 114.991c-1.14 0-2.064.924-2.064 2.064v3.886l4.128-3.886c0-1.14-.924-2.064-2.064-2.064z" style="mix-blend-mode: screen;"></path><path fill="#fff" d="M657.77 114.65a2.408 2.408 0 00-2.405 2.405v6.973h4.804v-6.973a2.408 2.408 0 00-2.405-2.405h.006zm2.064 2.405v.769h-1.878v-2.827a2.064 2.064 0 011.878 2.058zm-2.25-2.058v2.827h-1.878v-.769c0-1.078.824-1.965 1.878-2.058zm-1.878 3.193h1.878v5.497h-1.878v-5.497zm2.25 5.497v-5.497h1.878v5.497h-1.878z"></path><path fill="#97B2E4" d="M659.834 141.215h-4.128v-6.638a2.063 2.063 0 114.128 0v6.638z"></path><path fill="url(#paint1_linear_9656_68519)" d="M657.77 132.506c-1.14 0-2.064.924-2.064 2.064v3.887l4.128-3.887c0-1.14-.924-2.064-2.064-2.064z" style="mix-blend-mode: screen;"></path><path fill="#fff" d="M657.77 132.172a2.407 2.407 0 00-2.405 2.405v6.973h4.804v-6.973a2.407 2.407 0 00-2.405-2.405h.006zm2.064 2.405v.768h-1.878v-2.826a2.063 2.063 0 011.878 2.058zm-2.25-2.058v2.826h-1.878v-.768c0-1.079.824-1.965 1.878-2.058zm-1.878 3.192h1.878v5.498h-1.878v-5.498zm2.25 5.498v-5.498h1.878v5.498h-1.878z"></path><path fill="#97B2E4" d="M676.836 123.693h-4.128v-6.638a2.064 2.064 0 114.128 0v6.638z"></path><path fill="url(#paint2_linear_9656_68519)" d="M674.765 114.991c-1.14 0-2.064.924-2.064 2.064v3.886l4.128-3.886c0-1.14-.923-2.064-2.064-2.064z" style="mix-blend-mode: screen;"></path><path fill="#fff" d="M674.765 114.65a2.408 2.408 0 00-2.405 2.405v6.973h4.804v-6.973a2.408 2.408 0 00-2.405-2.405h.006zm2.064 2.405v.769h-1.878v-2.827a2.064 2.064 0 011.878 2.058zm-2.25-2.058v2.827h-1.878v-.769c0-1.078.825-1.965 1.878-2.058zm-1.878 3.193h1.878v5.497h-1.878v-5.497zm2.25 5.497v-5.497h1.878v5.497h-1.878z"></path><path fill="#97B2E4" d="M668.333 123.693h-4.128v-6.638a2.064 2.064 0 114.128 0v6.638z"></path><path fill="#000" d="M666.269 114.991c-1.14 0-2.064.924-2.064 2.064v3.886l4.128-3.886c0-1.14-.923-2.064-2.064-2.064z" style="mix-blend-mode: screen;"></path><path fill="#fff" d="M666.269 114.65a2.408 2.408 0 00-2.405 2.405v6.973h4.804v-6.973a2.408 2.408 0 00-2.405-2.405h.006zm2.064 2.405v.769h-1.878v-2.827a2.064 2.064 0 011.878 2.058zm-2.25-2.058v2.827h-1.878v-.769c0-1.078.825-1.965 1.878-2.058zm-1.878 3.193h1.878v5.497h-1.878v-5.497zm2.25 5.497v-5.497h1.878v5.497h-1.878z"></path><path fill="#97B2E4" d="M676.836 141.215h-4.128v-6.638a2.063 2.063 0 114.128 0v6.638z"></path><path fill="url(#paint3_linear_9656_68519)" d="M674.765 132.506c-1.14 0-2.064.924-2.064 2.064v3.887l4.128-3.887c0-1.14-.923-2.064-2.064-2.064z" style="mix-blend-mode: screen;"></path><path fill="#fff" d="M674.765 132.172a2.407 2.407 0 00-2.405 2.405v6.973h4.804v-6.973a2.407 2.407 0 00-2.405-2.405h.006zm2.064 2.405v.768h-1.878v-2.826a2.063 2.063 0 011.878 2.058zm-2.25-2.058v2.826h-1.878v-.768c0-1.079.825-1.965 1.878-2.058zm-1.878 3.192h1.878v5.498h-1.878v-5.498zm2.25 5.498v-5.498h1.878v5.498h-1.878z"></path><path fill="#97B2E4" d="M691.26 123.693h-4.128v-6.638a2.063 2.063 0 114.128 0v6.638z"></path><path fill="url(#paint4_linear_9656_68519)" d="M689.189 114.991c-1.14 0-2.064.924-2.064 2.064v3.886l4.128-3.886c0-1.14-.924-2.064-2.064-2.064z" style="mix-blend-mode: screen;"></path><path fill="#fff" d="M689.189 114.65a2.408 2.408 0 00-2.405 2.405v6.973h4.804v-6.973a2.408 2.408 0 00-2.405-2.405h.006zm2.064 2.405v.769h-1.878v-2.827a2.064 2.064 0 011.878 2.058zm-2.25-2.058v2.827h-1.878v-.769c0-1.078.824-1.965 1.878-2.058zm-1.878 3.193h1.878v5.497h-1.878v-5.497zm2.25 5.497v-5.497h1.878v5.497h-1.878z"></path><path fill="#97B2E4" d="M691.26 141.215h-4.128v-6.638a2.063 2.063 0 114.128 0v6.638z"></path><path fill="url(#paint5_linear_9656_68519)" d="M689.189 132.507c-1.14 0-2.064.923-2.064 2.064v3.886l4.128-3.886a2.063 2.063 0 00-2.064-2.064z" style="mix-blend-mode: screen;"></path><path fill="#fff" d="M689.189 132.172a2.408 2.408 0 00-2.405 2.405v6.973h4.804v-6.973a2.408 2.408 0 00-2.405-2.405h.006zm2.064 2.405v.769h-1.878v-2.827a2.064 2.064 0 011.878 2.058zm-2.25-2.058v2.827h-1.878v-.769c0-1.078.824-1.965 1.878-2.058zm-1.878 3.193h1.878v5.497h-1.878v-5.497zm2.25 5.497v-5.497h1.878v5.497h-1.878z"></path><path fill="#97B2E4" d="M700.181 123.693h-4.128v-6.638a2.063 2.063 0 114.128 0v6.638z"></path><path fill="#000" d="M698.117 114.991a2.063 2.063 0 00-2.064 2.064v3.886l4.128-3.886c0-1.14-.924-2.064-2.064-2.064z" style="mix-blend-mode: screen;"></path><path fill="#fff" d="M698.117 114.65a2.407 2.407 0 00-2.405 2.405v6.973h4.803v-6.973a2.407 2.407 0 00-2.404-2.405h.006zm2.064 2.405v.769h-1.878v-2.827a2.065 2.065 0 011.878 2.058zm-2.25-2.058v2.827h-1.878v-.769c0-1.078.824-1.965 1.878-2.058zm-1.878 3.193h1.878v5.497h-1.878v-5.497zm2.25 5.497v-5.497h1.878v5.497h-1.878z"></path><path fill="#97B2E4" d="M700.181 141.215h-4.128v-6.638a2.063 2.063 0 114.128 0v6.638z"></path><path fill="url(#paint6_linear_9656_68519)" d="M698.117 132.506a2.063 2.063 0 00-2.064 2.064v3.887l4.128-3.887c0-1.14-.924-2.064-2.064-2.064z" style="mix-blend-mode: screen;"></path><path fill="#fff" d="M698.117 132.172a2.407 2.407 0 00-2.405 2.405v6.973h4.803v-6.973a2.406 2.406 0 00-2.404-2.405h.006zm2.064 2.405v.768h-1.878v-2.826a2.064 2.064 0 011.878 2.058zm-2.25-2.058v2.826h-1.878v-.768c0-1.079.824-1.965 1.878-2.058zm-1.878 3.192h1.878v5.498h-1.878v-5.498zm2.25 5.498v-5.498h1.878v5.498h-1.878z"></path><path fill="#97B2E4" d="M709.308 123.693h-4.128v-6.638a2.063 2.063 0 114.128 0v6.638z"></path><path fill="url(#paint7_linear_9656_68519)" d="M707.244 114.991a2.063 2.063 0 00-2.064 2.064v3.886l4.128-3.886c0-1.14-.924-2.064-2.064-2.064z" style="mix-blend-mode: screen;"></path><path fill="#fff" d="M707.244 114.65a2.407 2.407 0 00-2.405 2.405v6.973h4.803v-6.973a2.407 2.407 0 00-2.404-2.405h.006zm2.064 2.405v.769h-1.878v-2.827a2.065 2.065 0 011.878 2.058zm-2.25-2.058v2.827h-1.878v-.769c0-1.078.824-1.965 1.878-2.058zm-1.878 3.193h1.878v5.497h-1.878v-5.497zm2.25 5.497v-5.497h1.878v5.497h-1.878z"></path><path fill="#97B2E4" d="M709.308 141.215h-4.128v-6.638a2.063 2.063 0 114.128 0v6.638z"></path><path fill="url(#paint8_linear_9656_68519)" d="M707.244 132.507a2.063 2.063 0 00-2.064 2.064v3.886l4.128-3.886a2.063 2.063 0 00-2.064-2.064z" style="mix-blend-mode: screen;"></path><path fill="#fff" d="M707.244 132.172a2.407 2.407 0 00-2.405 2.405v6.973h4.803v-6.973a2.407 2.407 0 00-2.404-2.405h.006zm2.064 2.405v.769h-1.878v-2.827a2.065 2.065 0 011.878 2.058zm-2.25-2.058v2.827h-1.878v-.769c0-1.078.824-1.965 1.878-2.058zm-1.878 3.193h1.878v5.497h-1.878v-5.497zm2.25 5.497v-5.497h1.878v5.497h-1.878z"></path><path fill="#97B2E4" d="M627.327 123.693h-4.128v-6.638a2.064 2.064 0 114.128 0v6.638z"></path><path fill="url(#paint9_linear_9656_68519)" d="M625.256 114.991c-1.14 0-2.064.924-2.064 2.064v3.886l4.128-3.886c0-1.14-.923-2.064-2.064-2.064z" style="mix-blend-mode: screen;"></path><path fill="#fff" d="M625.256 114.65a2.407 2.407 0 00-2.404 2.405v6.973h4.803v-6.973a2.407 2.407 0 00-2.405-2.405h.006zm2.064 2.405v.769h-1.878v-2.827a2.064 2.064 0 011.878 2.058zm-2.25-2.058v2.827h-1.878v-.769c0-1.078.825-1.965 1.878-2.058zm-1.878 3.193h1.878v5.497h-1.878v-5.497zm2.25 5.497v-5.497h1.878v5.497h-1.878z"></path><path fill="#97B2E4" d="M627.327 141.215h-4.128v-6.638a2.063 2.063 0 114.128 0v6.638z"></path><path fill="url(#paint10_linear_9656_68519)" d="M625.256 132.506c-1.14 0-2.064.924-2.064 2.064v3.887l4.128-3.887c0-1.14-.923-2.064-2.064-2.064z" style="mix-blend-mode: screen;"></path><path fill="#fff" d="M625.256 132.172a2.406 2.406 0 00-2.404 2.405v6.973h4.803v-6.973a2.407 2.407 0 00-2.405-2.405h.006zm2.064 2.405v.768h-1.878v-2.826a2.063 2.063 0 011.878 2.058zm-2.25-2.058v2.826h-1.878v-.768c0-1.079.825-1.965 1.878-2.058zm-1.878 3.192h1.878v5.498h-1.878v-5.498zm2.25 5.498v-5.498h1.878v5.498h-1.878z"></path><path fill="#97B2E4" d="M636.243 123.693h-4.128v-6.638a2.064 2.064 0 114.128 0v6.638z"></path><path fill="#000" d="M634.179 114.991c-1.14 0-2.064.924-2.064 2.064v3.886l4.128-3.886c0-1.14-.923-2.064-2.064-2.064z" style="mix-blend-mode: screen;"></path><path fill="#fff" d="M634.179 114.65a2.408 2.408 0 00-2.405 2.405v6.973h4.804v-6.973a2.408 2.408 0 00-2.405-2.405h.006zm2.064 2.405v.769h-1.878v-2.827a2.064 2.064 0 011.878 2.058zm-2.25-2.058v2.827h-1.878v-.769c0-1.078.825-1.965 1.878-2.058zm-1.878 3.193h1.878v5.497h-1.878v-5.497zm2.25 5.497v-5.497h1.878v5.497h-1.878z"></path><path fill="#97B2E4" d="M636.243 141.215h-4.128v-6.638a2.063 2.063 0 114.128 0v6.638z"></path><path fill="url(#paint11_linear_9656_68519)" d="M634.179 132.506c-1.14 0-2.064.924-2.064 2.064v3.887l4.128-3.887c0-1.14-.923-2.064-2.064-2.064z" style="mix-blend-mode: screen;"></path><path fill="#fff" d="M634.179 132.172a2.407 2.407 0 00-2.405 2.405v6.973h4.804v-6.973a2.407 2.407 0 00-2.405-2.405h.006zm2.064 2.405v.768h-1.878v-2.826a2.063 2.063 0 011.878 2.058zm-2.25-2.058v2.826h-1.878v-.768c0-1.079.825-1.965 1.878-2.058zm-1.878 3.192h1.878v5.498h-1.878v-5.498zm2.25 5.498v-5.498h1.878v5.498h-1.878z"></path><path fill="#97B2E4" d="M645.374 123.692h-4.128v-6.638a2.064 2.064 0 114.128 0v6.638z"></path><path fill="url(#paint12_linear_9656_68519)" d="M643.31 114.99c-1.14 0-2.064.924-2.064 2.064v3.886l4.128-3.886c0-1.14-.923-2.064-2.064-2.064z" style="mix-blend-mode: screen;"></path><path fill="#fff" d="M643.31 114.649a2.408 2.408 0 00-2.405 2.405v6.973h4.804v-6.973a2.408 2.408 0 00-2.405-2.405h.006zm2.064 2.405v.769h-1.878v-2.826a2.062 2.062 0 011.878 2.057zm-2.25-2.057v2.826h-1.878v-.769c0-1.078.825-1.965 1.878-2.057zm-1.878 3.192h1.878v5.497h-1.878v-5.497zm2.25 5.497v-5.497h1.878v5.497h-1.878z"></path><path fill="#97B2E4" d="M645.374 141.215h-4.128v-6.638a2.063 2.063 0 114.128 0v6.638z"></path><path fill="url(#paint13_linear_9656_68519)" d="M643.31 132.506c-1.14 0-2.064.924-2.064 2.064v3.887l4.128-3.887c0-1.14-.923-2.064-2.064-2.064z" style="mix-blend-mode: screen;"></path><path fill="#fff" d="M643.31 132.172a2.407 2.407 0 00-2.405 2.405v6.973h4.804v-6.973a2.407 2.407 0 00-2.405-2.405h.006zm2.064 2.405v.768h-1.878v-2.826a2.063 2.063 0 011.878 2.058zm-2.25-2.058v2.826h-1.878v-.768c0-1.079.825-1.965 1.878-2.058zm-1.878 3.192h1.878v5.498h-1.878v-5.498zm2.25 5.498v-5.498h1.878v5.498h-1.878z"></path><path fill="#C9C8C8" d="M711.501 111.644h-91.286v1.5h91.286v-1.5z"></path><path fill="#2B373C" d="M712.97 145.616H619v5.578h93.97v-5.578z"></path><path fill="#C5D9FC" d="M712.722 106.964H619v4.68h93.722v-4.68zM712.722 125.565H619v2.764h93.722v-2.764z"></path><path fill="#FF7768" d="M678.807 124.592h-25.481v5.002h25.481v-5.002z"></path><path fill="#C9C8C8" d="M685.697 113.144h-1.674v32.478h1.674v-32.478zM655 113.144h-1.674v32.478H655v-32.478z"></path><path fill="#FF7768" d="M678.387 144.618h6.074c.465 0 .843.378.843.843v.161h-7.766v-.161c0-.465.378-.843.843-.843h.006zM677.538 111.613h7.766v.427a.569.569 0 01-.57.571h-6.619a.569.569 0 01-.571-.571v-.427h-.006zM684.602 112.617h-6.366v.502h6.366v-.502zM684.034 113.119h-5.225v31.499h5.225v-31.499z"></path><path fill="#FF7768" d="M684.602 112.617h-6.366v.248h6.366v-.248zM684.034 113.119h-5.225v.248h5.225v-.248zM685.304 111.613h-7.766v.248h7.766v-.248zM647.679 144.618h6.074c.465 0 .843.378.843.843v.161h-7.766v-.161c0-.465.378-.843.843-.843h.006zM646.837 111.613h7.766v.427a.569.569 0 01-.57.571h-6.62a.569.569 0 01-.57-.571v-.427h-.006zM653.894 112.617h-6.366v.502h6.366v-.502zM653.331 113.119h-5.225v31.499h5.225v-31.499z"></path><path fill="#FF7768" d="M653.894 112.617h-6.366v.248h6.366v-.248zM653.331 113.119h-5.225v.248h5.225v-.248zM654.603 111.613h-7.766v.248h7.766v-.248z"></path><path fill="#B6D0D8" d="M711.501 91.853h-91.286v15.105h91.286V91.853z"></path><path fill="#C5D9FC" d="M665.882 87l-25.592 19.964h51.191L665.882 87z"></path><path fill="#fff" d="M648.274 107.565l17.609-13.735 17.615 13.735h-35.224z"></path><path fill="#E0D6C0" d="M676.592 145.616h-20.206v1.394h20.206v-1.394z"></path><path fill="#FFF7DF" d="M676.592 147.01h-20.206v1.395h20.206v-1.395z"></path><path fill="#E0D6C0" d="M676.592 148.405h-20.206v1.394h20.206v-1.394z"></path><path fill="#FFF7DF" d="M676.592 149.799h-20.206v1.395h20.206v-1.395z"></path><path fill="#fff" d="M660.846 125.243c.483 0 .744.26.744.744v.341c0 .049-.025.08-.081.08h-.521c-.049 0-.08-.031-.08-.08v-.217c0-.136-.068-.205-.205-.205h-.285c-.13 0-.204.075-.204.205v.44l1.252.403a.188.188 0 01.136.192v.973c0 .49-.26.744-.744.744h-.582c-.484 0-.744-.26-.744-.744v-.335c0-.055.031-.08.081-.08h.52c.056 0 .081.025.081.08v.217c0 .143.08.205.204.205h.279c.137 0 .205-.068.205-.205v-.52l-1.24-.403c-.093-.031-.142-.093-.142-.192v-.893c0-.49.266-.744.743-.744h.583v-.006zM664.137 126.551c0 .049-.031.08-.081.08h-.483c-.056 0-.081-.031-.081-.08v-.422c0-.136-.074-.204-.205-.204h-.328c-.143 0-.205.074-.205.204v1.878c0 .143.075.205.205.205h.328c.137 0 .205-.068.205-.205v-.44c0-.049.025-.08.081-.08h.483c.05 0 .081.031.081.08v.558c0 .49-.267.744-.744.744h-.577c-.489 0-.75-.261-.75-.744v-2.132c0-.49.267-.744.75-.744h.577c.483 0 .744.26.744.744v.558zM666.022 125.33c0-.05.031-.081.08-.081h.533c.062 0 .087.031.087.081v3.458c0 .05-.025.081-.087.081h-.533c-.049 0-.08-.031-.08-.081v-1.376h-.663v1.376c0 .05-.031.081-.081.081h-.533c-.062 0-.087-.031-.087-.081v-3.458c0-.05.025-.081.087-.081h.533c.05 0 .081.031.081.081v1.394h.663v-1.394zM667.244 125.993c0-.49.26-.744.744-.744h.583c.489 0 .743.26.743.744v2.132c0 .49-.26.744-.743.744h-.583c-.49 0-.744-.261-.744-.744v-2.132zm1.209 2.213c.136 0 .204-.069.204-.205v-1.872c0-.136-.074-.204-.204-.204h-.329c-.136 0-.204.074-.204.204v1.872c0 .143.074.205.204.205h.329zM669.833 125.993c0-.49.26-.744.744-.744h.582c.484 0 .744.26.744.744v2.132c0 .49-.26.744-.744.744h-.582c-.49 0-.744-.261-.744-.744v-2.132zm1.209 2.213c.136 0 .204-.069.204-.205v-1.872c0-.136-.074-.204-.204-.204h-.329c-.136 0-.204.074-.204.204v1.872c0 .143.074.205.204.205h.329zM673.132 128.187h1.023c.056 0 .081.031.081.081v.52c0 .056-.025.081-.081.081h-1.649c-.049 0-.08-.025-.08-.081v-3.458c0-.05.031-.081.08-.081h.54c.055 0 .08.031.08.081v2.857h.006z"></path><path fill="#C9C8C8" d="M657.762 145.616h-1.376v5.578h1.376v-5.578zM672.111 91.853h1.643l26.193 15.111h-8.466l-19.37-15.111zM648.274 107.565h.595l17.585-12.31 16.276 12.31h.768L665.883 93.83l-17.609 13.735z"></path><path fill="#E0D6C0" d="M666.293 131.657c-2.516 0-4.562 1.866-4.562 4.165v9.8h9.124v-9.8c0-2.299-2.045-4.165-4.562-4.165z"></path><path fill="#312A20" d="M665.952 132.022h.18v13.593h-3.991v-9.781a3.813 3.813 0 013.811-3.812zM670.44 145.622h-3.991v-13.593h.18a3.813 3.813 0 013.811 3.812v9.781z"></path><path fill="#C5D9FC" d="M662.277 102.155a3.777 3.777 0 013.775-3.775 3.777 3.777 0 013.775 3.775 3.777 3.777 0 01-3.775 3.774 3.777 3.777 0 01-3.775-3.774z"></path><path fill="#312A20" d="M668.002 104.274l-2.07-2.07v-2.888h.229v2.795l2.008 2.002-.167.161z"></path><path fill="#C9C8C8" d="M648.1 128.329h-27.885v1.054H648.1v-1.054zM711.499 128.329h-25.803v1.054h25.803v-1.054zM678.813 129.587h-23.807v1.141h23.807v-1.141z"></path></g><g opacity="0.5" style="mix-blend-mode: luminosity;"><path fill="#366ED7" d="M1262.22 40.512h-54.06v4.368h54.06v-4.368z"></path><path fill="#A5E6FA" d="M1254.68 36.143h-38.98v4.368h38.98v-4.368z"></path><path fill="#5FD6FA" d="M1241.63 31.774h-12.88a4.365 4.365 0 00-4.37 4.369H1246a4.37 4.37 0 00-4.37-4.37z"></path><path fill="#A5E6FA" d="M1267.53 44.525h-25.7v108.028h25.7V44.525zM1234.4 44.525h-6.22v108.028h6.22V44.525z"></path><path fill="#5FD6FA" d="M1241.83 43.954h-8.8v108.598h8.8V43.954z"></path><path fill="#545244" d="M1236.68 27.427h-4.56v4.413h4.56v-4.413zM1234.88 13.137h-1.39v14.29h1.39v-14.29z"></path><path fill="#545244" d="M1234.4.43h-.43v14.29h.43V.43z"></path><path fill="#545244" d="M1235.06 12.677h-1.76v.459h1.76v-.46z"></path><path fill="#D24A43" d="M1233.75.43c0-.237.19-.43.43-.43s.43.193.43.43c0 .236-.19.429-.43.429a.428.428 0 01-.43-.43z"></path><path fill="#366ED7" d="M1264.84 48.027h-20.44v2.392h20.44v-2.392z"></path><path fill="#6A777D" d="M1264.84 47.456h-20.44v.578h20.44v-.578z"></path><path fill="#366ED7" d="M1240.46 48.027h-6.06v2.392h6.06v-2.392z"></path><path fill="#41494D" d="M1240.46 47.457h-6.06v.578h6.06v-.578z"></path><path fill="#366ED7" d="M1240.46 53.477h-6.06v2.392h6.06v-2.392z"></path><path fill="#41494D" d="M1240.46 52.9h-6.06v.577h6.06v-.578z"></path><path fill="#366ED7" d="M1240.46 58.927h-6.06v2.392h6.06v-2.392z"></path><path fill="#41494D" d="M1240.46 58.35h-6.06v.577h6.06v-.577z"></path><path fill="#366ED7" d="M1240.46 64.377h-6.06v2.392h6.06v-2.392z"></path><path fill="#41494D" d="M1240.46 63.8h-6.06v.577h6.06V63.8z"></path><path fill="#366ED7" d="M1240.46 69.827h-6.06v2.392h6.06v-2.392z"></path><path fill="#41494D" d="M1240.46 69.25h-6.06v.577h6.06v-.578z"></path><path fill="#366ED7" d="M1240.46 75.277h-6.06v2.392h6.06v-2.392z"></path><path fill="#41494D" d="M1240.46 74.7h-6.06v.577h6.06v-.578z"></path><path fill="#366ED7" d="M1240.46 80.727h-6.06v2.392h6.06v-2.392z"></path><path fill="#41494D" d="M1240.46 80.15h-6.06v.577h6.06v-.578z"></path><path fill="#366ED7" d="M1240.46 86.176h-6.06v2.392h6.06v-2.392z"></path><path fill="#41494D" d="M1240.46 85.6h-6.06v.577h6.06v-.578z"></path><path fill="#366ED7" d="M1240.46 91.626h-6.06v2.392h6.06v-2.392z"></path><path fill="#41494D" d="M1240.46 91.049h-6.06v.577h6.06v-.577z"></path><path fill="#366ED7" d="M1240.46 97.076h-6.06v2.392h6.06v-2.392z"></path><path fill="#41494D" d="M1240.46 96.499h-6.06v.577h6.06V96.5z"></path><path fill="#366ED7" d="M1240.46 102.526h-6.06v2.392h6.06v-2.392z"></path><path fill="#41494D" d="M1240.46 101.948h-6.06v.578h6.06v-.578z"></path><path fill="#366ED7" d="M1240.46 107.976h-6.06v2.391h6.06v-2.391z"></path><path fill="#41494D" d="M1240.46 107.398h-6.06v.578h6.06v-.578z"></path><path fill="#366ED7" d="M1240.46 113.426h-6.06v2.392h6.06v-2.392z"></path><path fill="#41494D" d="M1240.46 112.849h-6.06v.577h6.06v-.577z"></path><path fill="#366ED7" d="M1240.46 118.876h-6.06v2.392h6.06v-2.392z"></path><path fill="#41494D" d="M1240.46 118.298h-6.06v.578h6.06v-.578z"></path><path fill="#366ED7" d="M1240.46 124.326h-6.06v2.391h6.06v-2.391z"></path><path fill="#41494D" d="M1240.46 123.748h-6.06v.578h6.06v-.578z"></path><path fill="#366ED7" d="M1240.46 129.776h-6.06v2.392h6.06v-2.392z"></path><path fill="#41494D" d="M1240.46 129.198h-6.06v.578h6.06v-.578z"></path><path fill="#366ED7" d="M1240.46 135.226h-6.06v2.391h6.06v-2.391z"></path><path fill="#41494D" d="M1240.46 134.648h-6.06v.578h6.06v-.578z"></path><path fill="#5FD6FA" d="M1228.18 43.954h-8.79v108.598h8.79V43.954z"></path><path fill="#366ED7" d="M1226.81 48.027h-6.05v2.392h6.05v-2.392z"></path><path fill="#41494D" d="M1226.81 47.456h-6.05v.578h6.05v-.578z"></path><path fill="#366ED7" d="M1226.81 53.477h-6.05v2.392h6.05v-2.392z"></path><path fill="#41494D" d="M1226.81 52.9h-6.05v.577h6.05v-.578z"></path><path fill="#366ED7" d="M1226.81 58.926h-6.05v2.392h6.05v-2.392z"></path><path fill="#41494D" d="M1226.81 58.349h-6.05v.577h6.05v-.577z"></path><path fill="#366ED7" d="M1226.81 64.376h-6.05v2.392h6.05v-2.392z"></path><path fill="#41494D" d="M1226.81 63.799h-6.05v.577h6.05V63.8z"></path><path fill="#366ED7" d="M1226.81 69.827h-6.05v2.392h6.05v-2.392z"></path><path fill="#41494D" d="M1226.81 69.25h-6.05v.577h6.05v-.578z"></path><path fill="#366ED7" d="M1226.81 75.277h-6.05v2.392h6.05v-2.392z"></path><path fill="#41494D" d="M1226.81 74.7h-6.05v.577h6.05v-.578z"></path><path fill="#366ED7" d="M1226.81 80.727h-6.05v2.392h6.05v-2.392z"></path><path fill="#41494D" d="M1226.81 80.15h-6.05v.577h6.05v-.578z"></path><path fill="#366ED7" d="M1226.81 86.176h-6.05v2.392h6.05v-2.392z"></path><path fill="#41494D" d="M1226.81 85.599h-6.05v.577h6.05V85.6z"></path><path fill="#366ED7" d="M1226.81 91.626h-6.05v2.392h6.05v-2.392z"></path><path fill="#41494D" d="M1226.81 91.049h-6.05v.577h6.05v-.577z"></path><path fill="#366ED7" d="M1226.81 97.076h-6.05v2.392h6.05v-2.392z"></path><path fill="#41494D" d="M1226.81 96.499h-6.05v.577h6.05V96.5z"></path><path fill="#366ED7" d="M1226.81 102.526h-6.05v2.392h6.05v-2.392z"></path><path fill="#41494D" d="M1226.81 101.949h-6.05v.577h6.05v-.577z"></path><path fill="#366ED7" d="M1226.81 107.976h-6.05v2.392h6.05v-2.392z"></path><path fill="#41494D" d="M1226.81 107.398h-6.05v.578h6.05v-.578z"></path><path fill="#366ED7" d="M1226.81 113.426h-6.05v2.392h6.05v-2.392z"></path><path fill="#41494D" d="M1226.81 112.849h-6.05v.577h6.05v-.577z"></path><path fill="#366ED7" d="M1226.81 118.876h-6.05v2.392h6.05v-2.392z"></path><path fill="#41494D" d="M1226.81 118.298h-6.05v.578h6.05v-.578z"></path><path fill="#366ED7" d="M1226.81 124.326h-6.05v2.391h6.05v-2.391z"></path><path fill="#41494D" d="M1226.81 123.748h-6.05v.578h6.05v-.578z"></path><path fill="#366ED7" d="M1226.81 129.776h-6.05v2.392h6.05v-2.392z"></path><path fill="#41494D" d="M1226.81 129.198h-6.05v.578h6.05v-.578z"></path><path fill="#366ED7" d="M1226.81 135.225h-6.05v2.392h6.05v-2.392z"></path><path fill="#41494D" d="M1226.81 134.647h-6.05v.578h6.05v-.578z"></path><path fill="#366ED7" d="M1264.84 53.477h-20.44v2.392h20.44v-2.392z"></path><path fill="#6A777D" d="M1264.84 52.9h-20.44v.577h20.44v-.578z"></path><path fill="#366ED7" d="M1264.84 58.927h-20.44v2.392h20.44v-2.392z"></path><path fill="#6A777D" d="M1264.84 58.35h-20.44v.577h20.44v-.578z"></path><path fill="#366ED7" d="M1264.84 64.376h-20.44v2.392h20.44v-2.392z"></path><path fill="#6A777D" d="M1264.84 63.799h-20.44v.577h20.44V63.8z"></path><path fill="#366ED7" d="M1264.84 69.827h-20.44v2.392h20.44v-2.392z"></path><path fill="#6A777D" d="M1264.84 69.25h-20.44v.577h20.44v-.578z"></path><path fill="#366ED7" d="M1264.84 75.277h-20.44v2.392h20.44v-2.392z"></path><path fill="#6A777D" d="M1264.84 74.7h-20.44v.577h20.44v-.578z"></path><path fill="#366ED7" d="M1264.84 80.727h-20.44v2.392h20.44v-2.392z"></path><path fill="#6A777D" d="M1264.84 80.15h-20.44v.577h20.44v-.578z"></path><path fill="#366ED7" d="M1264.84 86.176h-20.44v2.392h20.44v-2.392z"></path><path fill="#6A777D" d="M1264.84 85.599h-20.44v.577h20.44V85.6z"></path><path fill="#366ED7" d="M1264.84 91.626h-20.44v2.392h20.44v-2.392z"></path><path fill="#6A777D" d="M1264.84 91.049h-20.44v.577h20.44v-.577z"></path><path fill="#366ED7" d="M1264.84 97.076h-20.44v2.392h20.44v-2.392z"></path><path fill="#6A777D" d="M1264.84 96.499h-20.44v.577h20.44V96.5z"></path><path fill="#366ED7" d="M1264.84 102.526h-20.44v2.392h20.44v-2.392z"></path><path fill="#6A777D" d="M1264.84 101.949h-20.44v.577h20.44v-.577z"></path><path fill="#366ED7" d="M1264.84 107.976h-20.44v2.391h20.44v-2.391z"></path><path fill="#6A777D" d="M1264.84 107.398h-20.44v.578h20.44v-.578z"></path><path fill="#366ED7" d="M1264.84 113.426h-20.44v2.392h20.44v-2.392z"></path><path fill="#6A777D" d="M1264.84 112.849h-20.44v.577h20.44v-.577z"></path><path fill="#366ED7" d="M1264.84 118.876h-20.44v2.392h20.44v-2.392z"></path><path fill="#6A777D" d="M1264.84 118.298h-20.44v.578h20.44v-.578z"></path><path fill="#366ED7" d="M1264.84 124.326h-20.44v2.391h20.44v-2.391z"></path><path fill="#6A777D" d="M1264.84 123.748h-20.44v.578h20.44v-.578z"></path><path fill="#366ED7" d="M1264.84 129.776h-20.44v2.392h20.44v-2.392z"></path><path fill="#6A777D" d="M1264.84 129.198h-20.44v.578h20.44v-.578z"></path><path fill="#366ED7" d="M1264.84 135.225h-20.44v2.392h20.44v-2.392z"></path><path fill="#6A777D" d="M1264.84 134.647h-20.44v.578h20.44v-.578z"></path><path fill="#A5E6FA" d="M1219.39 44.525h-15.89v108.028h15.89V44.525z"></path><path fill="#366ED7" d="M1216.71 48.027h-10.64v2.392h10.64v-2.392z"></path><path fill="#6A777D" d="M1216.71 47.456h-10.64v.578h10.64v-.578z"></path><path fill="#366ED7" d="M1216.71 53.477h-10.64v2.392h10.64v-2.392z"></path><path fill="#6A777D" d="M1216.71 52.9h-10.64v.577h10.64v-.578z"></path><path fill="#366ED7" d="M1216.71 58.926h-10.64v2.392h10.64v-2.392z"></path><path fill="#6A777D" d="M1216.71 58.349h-10.64v.577h10.64v-.577z"></path><path fill="#366ED7" d="M1216.71 64.376h-10.64v2.392h10.64v-2.392z"></path><path fill="#6A777D" d="M1216.71 63.799h-10.64v.577h10.64V63.8z"></path><path fill="#366ED7" d="M1216.71 69.827h-10.64v2.392h10.64v-2.392z"></path><path fill="#6A777D" d="M1216.71 69.25h-10.64v.577h10.64v-.578z"></path><path fill="#366ED7" d="M1216.71 75.277h-10.64v2.392h10.64v-2.392z"></path><path fill="#6A777D" d="M1216.71 74.7h-10.64v.577h10.64v-.578z"></path><path fill="#366ED7" d="M1216.71 80.727h-10.64v2.392h10.64v-2.392z"></path><path fill="#6A777D" d="M1216.71 80.15h-10.64v.577h10.64v-.578z"></path><path fill="#366ED7" d="M1216.71 86.176h-10.64v2.392h10.64v-2.392z"></path><path fill="#6A777D" d="M1216.71 85.599h-10.64v.577h10.64V85.6z"></path><path fill="#366ED7" d="M1216.71 91.626h-10.64v2.392h10.64v-2.392z"></path><path fill="#6A777D" d="M1216.71 91.049h-10.64v.577h10.64v-.577z"></path><path fill="#366ED7" d="M1216.71 97.076h-10.64v2.392h10.64v-2.392z"></path><path fill="#6A777D" d="M1216.71 96.499h-10.64v.577h10.64V96.5z"></path><path fill="#366ED7" d="M1216.71 102.526h-10.64v2.392h10.64v-2.392z"></path><path fill="#6A777D" d="M1216.71 101.949h-10.64v.577h10.64v-.577z"></path><path fill="#366ED7" d="M1216.71 107.976h-10.64v2.392h10.64v-2.392z"></path><path fill="#6A777D" d="M1216.71 107.398h-10.64v.578h10.64v-.578z"></path><path fill="#366ED7" d="M1216.71 113.426h-10.64v2.392h10.64v-2.392z"></path><path fill="#6A777D" d="M1216.71 112.849h-10.64v.577h10.64v-.577z"></path><path fill="#366ED7" d="M1216.71 118.876h-10.64v2.392h10.64v-2.392z"></path><path fill="#6A777D" d="M1216.71 118.298h-10.64v.578h10.64v-.578z"></path><path fill="#366ED7" d="M1216.71 124.326h-10.64v2.391h10.64v-2.391z"></path><path fill="#6A777D" d="M1216.71 123.748h-10.64v.578h10.64v-.578z"></path><path fill="#366ED7" d="M1216.71 129.776h-10.64v2.392h10.64v-2.392z"></path><path fill="#6A777D" d="M1216.71 129.198h-10.64v.578h10.64v-.578z"></path><path fill="#366ED7" d="M1216.71 135.225h-10.64v2.392h10.64v-2.392z"></path><path fill="#6A777D" d="M1216.71 134.647h-10.64v.578h10.64v-.578z"></path><path fill="#EBEEFC" d="M1228.18 152.553h1.07l2.3-108.028h-3.37v108.028zM1241.83 152.553h1.07l2.3-108.028h-3.37v108.028z"></path><path fill="#366ED7" d="M1268.32 43.954h-65.17v.926h65.17v-.926z"></path><path fill="#EBEEFC" d="M1219.39 44.873h-15.89v.792h15.89v-.792z"></path><path fill="#96D1E3" d="M1267.53 141.305h-64.03v11.248h64.03v-11.248z"></path><path fill="#EBEEFC" d="M1267.52 44.873h-22.33v.792h22.33v-.792z"></path><path fill="#366ED7" d="M1268.81 138.928H1202v2.377h66.81v-2.377z"></path><path fill="#366ED7" d="M1302.39 138.928h-35.35v2.377h35.35v-2.377zM1206.07 141.305h-2.57v11.248h2.57v-11.248z"></path><path fill="#366ED7" d="M1267.53 141.29h-2.58v11.248h2.58V141.29z"></path><path fill="#0F283D" d="M1230.38 142.689h-6.94v9.864h6.94v-9.864z"></path><path fill="#366ED7" d="M1230.14 143.023h-6.43v9.197h6.43v-9.197z"></path><path fill="url(#paint14_linear_9656_68519)" d="M1230.14 143.023l-6.43 6.916v-6.916h6.43z" style="mix-blend-mode: screen;"></path><path fill="#0F283D" d="M1227.14 142.911h-.3v9.471h.3v-9.471zM1239.01 142.689h-6.94v9.864h6.94v-9.864z"></path><path fill="#366ED7" d="M1238.77 143.022h-6.43v9.197h6.43v-9.197z"></path><path fill="url(#paint15_linear_9656_68519)" d="M1238.77 143.022l-6.43 6.917v-6.917h6.43z" style="mix-blend-mode: screen;"></path><path fill="#0F283D" d="M1235.77 142.911h-.3v9.471h.3v-9.471zM1247.58 142.689h-6.93v9.864h6.93v-9.864z"></path><path fill="#366ED7" d="M1247.35 143.022h-6.43v9.197h6.43v-9.197z"></path><path fill="url(#paint16_linear_9656_68519)" d="M1247.35 143.022l-6.43 6.917v-6.917h6.43z" style="mix-blend-mode: screen;"></path><path fill="#0F283D" d="M1244.35 142.911h-.31v9.471h.31v-9.471z"></path><path fill="#366ED7" d="M1221.74 143.467h-14.4v3.236h14.4v-3.236z"></path><path fill="#0F283D" d="M1221.74 142.689h-14.4v.778h14.4v-.778z"></path><path fill="#366ED7" d="M1263.79 143.467h-14.39v3.236h14.39v-3.236z"></path><path fill="#0F283D" d="M1263.79 142.689h-14.39v.778h14.39v-.778z"></path><path fill="#CAE1ED" d="M1264.95 152.057h-58.88v.496h58.88v-.496z"></path><path fill="#CAE1ED" d="M1249.17 151.568h-27.32v.496h27.32v-.496z"></path><path fill="#96D1E3" d="M1301.21 86.924h-33.69v52.004h33.69V86.924z"></path><path fill="#B6D0D8" d="M1275.28 95.936v-6.45h-6.14v6.45h6.14z"></path><path fill="#0F283D" d="M1274.86 95.507V89.91h-5.29v5.598h5.29z"></path><path fill="#366ED7" d="M1274.38 95.01V90.28h-4.35v4.731h4.35z"></path><path fill="url(#paint17_linear_9656_68519)" d="M1274.39 91.834l-4.35 3.236v-4.783h4.35v1.547z" style="mix-blend-mode: screen;"></path><path fill="#B6D0D8" d="M1283.28 95.929v-6.45h-6.14v6.45h6.14z"></path><path fill="#0F283D" d="M1282.87 95.507V89.91h-5.3v5.598h5.3z"></path><path fill="#366ED7" d="M1282.39 95.018v-4.731h-4.35v4.731h4.35z"></path><path fill="url(#paint18_linear_9656_68519)" d="M1282.39 91.834l-4.35 3.236v-4.783h4.35v1.547z" style="mix-blend-mode: screen;"></path><path fill="#B6D0D8" d="M1291.29 95.936v-6.45h-6.14v6.45h6.14z"></path><path fill="#0F283D" d="M1290.87 95.507V89.91h-5.29v5.598h5.29z"></path><path fill="#366ED7" d="M1290.4 95.018v-4.731h-4.35v4.731h4.35z"></path><path fill="url(#paint19_linear_9656_68519)" d="M1290.4 91.834l-4.35 3.236v-4.783h4.35v1.547z" style="mix-blend-mode: screen;"></path><path fill="#B6D0D8" d="M1299.3 95.929v-6.45h-6.15v6.45h6.15z"></path><path fill="#0F283D" d="M1298.88 95.507V89.91h-5.29v5.598h5.29z"></path><path fill="#366ED7" d="M1298.4 95.018v-4.731h-4.35v4.731h4.35z"></path><path fill="url(#paint20_linear_9656_68519)" d="M1298.4 91.834l-4.35 3.236v-4.783h4.35v1.547z" style="mix-blend-mode: screen;"></path><path fill="#B6D0D8" d="M1275.28 104.222v-6.45h-6.14v6.45h6.14z"></path><path fill="#0F283D" d="M1274.86 103.792v-5.598h-5.29v5.598h5.29z"></path><path fill="#366ED7" d="M1274.39 103.296v-4.732h-4.35v4.732h4.35z"></path><path fill="url(#paint21_linear_9656_68519)" d="M1274.39 100.12l-4.35 3.236v-4.784h4.35v1.548z" style="mix-blend-mode: screen;"></path><path fill="#B6D0D8" d="M1283.29 104.214v-6.45h-6.15v6.45h6.15z"></path><path fill="#0F283D" d="M1282.87 103.792v-5.598h-5.3v5.598h5.3z"></path><path fill="#366ED7" d="M1282.39 103.303v-4.731h-4.35v4.731h4.35z"></path><path fill="url(#paint22_linear_9656_68519)" d="M1282.39 100.119l-4.35 3.236v-4.783h4.35v1.547z" style="mix-blend-mode: screen;"></path><path fill="#B6D0D8" d="M1291.29 104.222v-6.45h-6.14v6.45h6.14z"></path><path fill="#0F283D" d="M1290.87 103.792v-5.598h-5.29v5.598h5.29z"></path><path fill="#366ED7" d="M1290.4 103.304v-4.732h-4.35v4.732h4.35z"></path><path fill="url(#paint23_linear_9656_68519)" d="M1290.4 100.12l-4.35 3.236v-4.784h4.35v1.548z" style="mix-blend-mode: screen;"></path><path fill="#B6D0D8" d="M1299.3 104.214v-6.45h-6.15v6.45h6.15z"></path><path fill="#0F283D" d="M1298.88 103.792v-5.598h-5.29v5.598h5.29z"></path><path fill="#366ED7" d="M1298.4 103.303v-4.731h-4.35v4.731h4.35z"></path><path fill="url(#paint24_linear_9656_68519)" d="M1298.4 100.119l-4.35 3.236v-4.783h4.35v1.547z" style="mix-blend-mode: screen;"></path><path fill="#B6D0D8" d="M1275.28 112.507v-6.449h-6.14v6.449h6.14z"></path><path fill="#0F283D" d="M1274.86 112.077v-5.598h-5.29v5.598h5.29z"></path><path fill="#366ED7" d="M1274.39 111.581v-4.731h-4.35v4.731h4.35z"></path><path fill="url(#paint25_linear_9656_68519)" d="M1274.39 108.405l-4.35 3.243v-4.791h4.35v1.548z" style="mix-blend-mode: screen;"></path><path fill="#B6D0D8" d="M1283.29 112.507v-6.449h-6.15v6.449h6.15z"></path><path fill="#0F283D" d="M1282.87 112.085v-5.598h-5.3v5.598h5.3z"></path><path fill="#366ED7" d="M1282.39 111.589v-4.732h-4.35v4.732h4.35z"></path><path fill="url(#paint26_linear_9656_68519)" d="M1282.39 108.405l-4.35 3.243v-4.791h4.35v1.548z" style="mix-blend-mode: screen;"></path><path fill="#B6D0D8" d="M1291.29 112.507v-6.449h-6.14v6.449h6.14z"></path><path fill="#0F283D" d="M1290.87 112.077v-5.598h-5.29v5.598h5.29z"></path><path fill="#366ED7" d="M1290.4 111.589v-4.732h-4.35v4.732h4.35z"></path><path fill="url(#paint27_linear_9656_68519)" d="M1290.4 108.405l-4.35 3.243v-4.791h4.35v1.548z" style="mix-blend-mode: screen;"></path><path fill="#B6D0D8" d="M1299.3 112.507v-6.449h-6.15v6.449h6.15z"></path><path fill="#0F283D" d="M1298.88 112.077v-5.598h-5.29v5.598h5.29z"></path><path fill="#366ED7" d="M1298.4 111.589v-4.732h-4.35v4.732h4.35z"></path><path fill="url(#paint28_linear_9656_68519)" d="M1298.4 108.405l-4.35 3.243v-4.791h4.35v1.548z" style="mix-blend-mode: screen;"></path><path fill="#B6D0D8" d="M1275.28 120.793v-6.449h-6.14v6.449h6.14z"></path><path fill="#0F283D" d="M1274.85 120.364v-5.598h-5.29v5.598h5.29z"></path><path fill="#366ED7" d="M1274.39 119.875v-4.731h-4.35v4.731h4.35z"></path><path fill="url(#paint29_linear_9656_68519)" d="M1274.39 116.699l-4.35 3.235v-4.79h4.35v1.555z" style="mix-blend-mode: screen;"></path><path fill="#B6D0D8" d="M1283.29 120.793v-6.449h-6.15v6.449h6.15z"></path><path fill="#0F283D" d="M1282.86 120.371v-5.598h-5.3v5.598h5.3z"></path><path fill="#366ED7" d="M1282.39 119.875v-4.731h-4.35v4.731h4.35z"></path><path fill="url(#paint30_linear_9656_68519)" d="M1282.39 116.699l-4.35 3.235v-4.79h4.35v1.555z" style="mix-blend-mode: screen;"></path><path fill="#B6D0D8" d="M1291.29 120.793v-6.449h-6.14v6.449h6.14z"></path><path fill="#0F283D" d="M1290.86 120.364v-5.598h-5.29v5.598h5.29z"></path><path fill="#366ED7" d="M1290.4 119.883v-4.732h-4.35v4.732h4.35z"></path><path fill="url(#paint31_linear_9656_68519)" d="M1290.4 116.699l-4.35 3.235v-4.79h4.35v1.555z" style="mix-blend-mode: screen;"></path><path fill="#B6D0D8" d="M1299.3 120.793v-6.449h-6.15v6.449h6.15z"></path><path fill="#0F283D" d="M1298.87 120.371v-5.598h-5.29v5.598h5.29z"></path><path fill="#366ED7" d="M1298.4 119.875v-4.731h-4.35v4.731h4.35z"></path><path fill="url(#paint32_linear_9656_68519)" d="M1298.4 116.699l-4.35 3.235v-4.79h4.35v1.555z" style="mix-blend-mode: screen;"></path><path fill="#B6D0D8" d="M1275.28 129.079v-6.45h-6.14v6.45h6.14z"></path><path fill="#0F283D" d="M1274.86 128.65v-5.598h-5.29v5.598h5.29z"></path><path fill="#366ED7" d="M1274.39 128.161v-4.732h-4.35v4.732h4.35z"></path><path fill="url(#paint33_linear_9656_68519)" d="M1274.39 124.984l-4.35 3.236v-4.791h4.35v1.555z" style="mix-blend-mode: screen;"></path><path fill="#B6D0D8" d="M1283.29 129.079v-6.45h-6.15v6.45h6.15z"></path><path fill="#0F283D" d="M1282.86 128.657v-5.598h-5.3v5.598h5.3z"></path><path fill="#366ED7" d="M1282.39 128.161v-4.732h-4.34v4.732h4.34z"></path><path fill="url(#paint34_linear_9656_68519)" d="M1282.39 124.984l-4.35 3.236v-4.791h4.35v1.555z" style="mix-blend-mode: screen;"></path><path fill="#B6D0D8" d="M1291.3 129.079v-6.45h-6.15v6.45h6.15z"></path><path fill="#0F283D" d="M1290.87 128.65v-5.598h-5.3v5.598h5.3z"></path><path fill="#366ED7" d="M1290.4 128.168v-4.731h-4.35v4.731h4.35z"></path><path fill="url(#paint35_linear_9656_68519)" d="M1290.4 124.984l-4.35 3.236v-4.791h4.35v1.555z" style="mix-blend-mode: screen;"></path><path fill="#B6D0D8" d="M1299.3 129.079v-6.45h-6.15v6.45h6.15z"></path><path fill="#0F283D" d="M1298.87 128.657v-5.598h-5.29v5.598h5.29z"></path><path fill="#366ED7" d="M1298.41 128.161v-4.732h-4.35v4.732h4.35z"></path><path fill="url(#paint36_linear_9656_68519)" d="M1298.4 124.984l-4.35 3.236v-4.791h4.35v1.555z" style="mix-blend-mode: screen;"></path><path fill="#B6D0D8" d="M1275.28 137.365v-6.449h-6.14v6.449h6.14z"></path><path fill="#0F283D" d="M1274.86 136.936v-5.598h-5.29v5.598h5.29z"></path><path fill="#366ED7" d="M1274.39 136.447v-4.732h-4.35v4.732h4.35z"></path><path fill="url(#paint37_linear_9656_68519)" d="M1274.39 133.27l-4.35 3.236v-4.791h4.35v1.555z" style="mix-blend-mode: screen;"></path><path fill="#B6D0D8" d="M1283.28 137.365v-6.449h-6.14v6.449h6.14z"></path><path fill="#0F283D" d="M1282.86 136.943v-5.598h-5.29v5.598h5.29z"></path><path fill="#366ED7" d="M1282.4 136.447v-4.732h-4.35v4.732h4.35z"></path><path fill="url(#paint38_linear_9656_68519)" d="M1282.39 133.27l-4.35 3.236v-4.791h4.35v1.555z" style="mix-blend-mode: screen;"></path><path fill="#B6D0D8" d="M1291.29 137.365v-6.449h-6.14v6.449h6.14z"></path><path fill="#0F283D" d="M1290.87 136.936v-5.598h-5.29v5.598h5.29z"></path><path fill="#366ED7" d="M1290.4 136.454v-4.731h-4.35v4.731h4.35z"></path><path fill="url(#paint39_linear_9656_68519)" d="M1290.4 133.27l-4.35 3.236v-4.791h4.35v1.555z" style="mix-blend-mode: screen;"></path><path fill="#B6D0D8" d="M1299.3 137.365v-6.449h-6.15v6.449h6.15z"></path><path fill="#0F283D" d="M1298.88 136.943v-5.598h-5.3v5.598h5.3z"></path><path fill="#366ED7" d="M1298.41 136.447v-4.732h-4.34v4.732h4.34z"></path><path fill="url(#paint40_linear_9656_68519)" d="M1298.4 133.27l-4.34 3.236v-4.791h4.34v1.555z" style="mix-blend-mode: screen;"></path><path fill="#B6D0D8" d="M1301.71 85.414h-34.67v1.851h34.67v-1.85z"></path><path fill="#B7E3F0" d="M1301.22 88.435l-33.7-.77v-.393h33.7v1.163z"></path><path fill="#96D1E3" d="M1301.22 141.305h-33.69v11.248h33.69v-11.248z"></path><path fill="#0F283D" d="M1281.51 142.689h-6.94v9.864h6.94v-9.864z"></path><path fill="#366ED7" d="M1281.27 143.023h-6.43v9.197h6.43v-9.197z"></path><path fill="url(#paint41_linear_9656_68519)" d="M1281.27 143.023l-6.43 6.916v-6.916h6.43z" style="mix-blend-mode: screen;"></path><path fill="#0F283D" d="M1278.28 142.911h-.31v9.471h.31v-9.471zM1290.23 142.689h-6.94v9.864h6.94v-9.864z"></path><path fill="#366ED7" d="M1289.99 143.023h-6.43v9.197h6.43v-9.197z"></path><path fill="url(#paint42_linear_9656_68519)" d="M1289.99 143.023l-6.43 6.916v-6.916h6.43z" style="mix-blend-mode: screen;"></path><path fill="#0F283D" d="M1286.99 142.911h-.3v9.471h.3v-9.471z"></path><path fill="#CAE1ED" d="M1290.98 151.235h-17.22v.651h17.22v-.651zM1293.33 151.894h-21.92v.651h21.92v-.651z"></path></g><defs><linearGradient id="paint0_linear_9656_68519" x1="655.706" x2="659.834" y1="117.966" y2="117.966" gradientUnits="userSpaceOnUse"><stop></stop><stop offset="1" stop-color="#655E4F"></stop></linearGradient><linearGradient id="paint1_linear_9656_68519" x1="606.016" x2="606.635" y1="135.488" y2="135.488" gradientUnits="userSpaceOnUse"><stop></stop><stop offset="1" stop-color="#655E4F"></stop></linearGradient><linearGradient id="paint2_linear_9656_68519" x1="672.701" x2="676.835" y1="87" y2="87" gradientUnits="userSpaceOnUse"><stop></stop><stop offset="1" stop-color="#655E4F"></stop></linearGradient><linearGradient id="paint3_linear_9656_68519" x1="672.701" x2="676.835" y1="135.488" y2="135.488" gradientUnits="userSpaceOnUse"><stop></stop><stop offset="1" stop-color="#655E4F"></stop></linearGradient><linearGradient id="paint4_linear_9656_68519" x1="687.125" x2="691.259" y1="87" y2="87" gradientUnits="userSpaceOnUse"><stop></stop><stop offset="1" stop-color="#655E4F"></stop></linearGradient><linearGradient id="paint5_linear_9656_68519" x1="687.125" x2="691.259" y1="135.488" y2="135.488" gradientUnits="userSpaceOnUse"><stop></stop><stop offset="1" stop-color="#655E4F"></stop></linearGradient><linearGradient id="paint6_linear_9656_68519" x1="696.053" x2="700.181" y1="135.488" y2="135.488" gradientUnits="userSpaceOnUse"><stop></stop><stop offset="1" stop-color="#655E4F"></stop></linearGradient><linearGradient id="paint7_linear_9656_68519" x1="705.173" x2="709.308" y1="87" y2="87" gradientUnits="userSpaceOnUse"><stop></stop><stop offset="1" stop-color="#655E4F"></stop></linearGradient><linearGradient id="paint8_linear_9656_68519" x1="705.173" x2="709.308" y1="135.488" y2="135.488" gradientUnits="userSpaceOnUse"><stop></stop><stop offset="1" stop-color="#655E4F"></stop></linearGradient><linearGradient id="paint9_linear_9656_68519" x1="623.192" x2="627.327" y1="87" y2="87" gradientUnits="userSpaceOnUse"><stop></stop><stop offset="1" stop-color="#655E4F"></stop></linearGradient><linearGradient id="paint10_linear_9656_68519" x1="623.192" x2="627.327" y1="135.488" y2="135.488" gradientUnits="userSpaceOnUse"><stop></stop><stop offset="1" stop-color="#655E4F"></stop></linearGradient><linearGradient id="paint11_linear_9656_68519" x1="632.115" x2="636.243" y1="135.488" y2="135.488" gradientUnits="userSpaceOnUse"><stop></stop><stop offset="1" stop-color="#655E4F"></stop></linearGradient><linearGradient id="paint12_linear_9656_68519" x1="641.24" x2="645.374" y1="86.999" y2="86.999" gradientUnits="userSpaceOnUse"><stop></stop><stop offset="1" stop-color="#655E4F"></stop></linearGradient><linearGradient id="paint13_linear_9656_68519" x1="641.24" x2="645.374" y1="135.488" y2="135.488" gradientUnits="userSpaceOnUse"><stop></stop><stop offset="1" stop-color="#655E4F"></stop></linearGradient><linearGradient id="paint14_linear_9656_68519" x1="1223.71" x2="1230.14" y1="146.481" y2="146.481" gradientUnits="userSpaceOnUse"><stop></stop><stop offset="1" stop-color="#655E4F"></stop></linearGradient><linearGradient id="paint15_linear_9656_68519" x1="1232.34" x2="1238.77" y1="0" y2="0" gradientUnits="userSpaceOnUse"><stop></stop><stop offset="1" stop-color="#655E4F"></stop></linearGradient><linearGradient id="paint16_linear_9656_68519" x1="1240.92" x2="1247.35" y1="0" y2="0" gradientUnits="userSpaceOnUse"><stop></stop><stop offset="1" stop-color="#655E4F"></stop></linearGradient><linearGradient id="paint17_linear_9656_68519" x1="1270.04" x2="1274.39" y1="92.678" y2="92.678" gradientUnits="userSpaceOnUse"><stop></stop><stop offset="1" stop-color="#655E4F"></stop></linearGradient><linearGradient id="paint18_linear_9656_68519" x1="1278.04" x2="1282.39" y1="92.678" y2="92.678" gradientUnits="userSpaceOnUse"><stop></stop><stop offset="1" stop-color="#655E4F"></stop></linearGradient><linearGradient id="paint19_linear_9656_68519" x1="1286.05" x2="1290.4" y1="92.678" y2="92.678" gradientUnits="userSpaceOnUse"><stop></stop><stop offset="1" stop-color="#655E4F"></stop></linearGradient><linearGradient id="paint20_linear_9656_68519" x1="1294.05" x2="1298.4" y1="92.678" y2="92.678" gradientUnits="userSpaceOnUse"><stop></stop><stop offset="1" stop-color="#655E4F"></stop></linearGradient><linearGradient id="paint21_linear_9656_68519" x1="1270.04" x2="1274.39" y1="100.964" y2="100.964" gradientUnits="userSpaceOnUse"><stop></stop><stop offset="1" stop-color="#655E4F"></stop></linearGradient><linearGradient id="paint22_linear_9656_68519" x1="1278.04" x2="1282.39" y1="100.964" y2="100.964" gradientUnits="userSpaceOnUse"><stop></stop><stop offset="1" stop-color="#655E4F"></stop></linearGradient><linearGradient id="paint23_linear_9656_68519" x1="1286.05" x2="1290.4" y1="100.964" y2="100.964" gradientUnits="userSpaceOnUse"><stop></stop><stop offset="1" stop-color="#655E4F"></stop></linearGradient><linearGradient id="paint24_linear_9656_68519" x1="1294.05" x2="1298.4" y1="100.964" y2="100.964" gradientUnits="userSpaceOnUse"><stop></stop><stop offset="1" stop-color="#655E4F"></stop></linearGradient><linearGradient id="paint25_linear_9656_68519" x1="1270.04" x2="1274.39" y1="109.249" y2="109.249" gradientUnits="userSpaceOnUse"><stop></stop><stop offset="1" stop-color="#655E4F"></stop></linearGradient><linearGradient id="paint26_linear_9656_68519" x1="1278.04" x2="1282.39" y1="109.249" y2="109.249" gradientUnits="userSpaceOnUse"><stop></stop><stop offset="1" stop-color="#655E4F"></stop></linearGradient><linearGradient id="paint27_linear_9656_68519" x1="1286.05" x2="1290.4" y1="109.249" y2="109.249" gradientUnits="userSpaceOnUse"><stop></stop><stop offset="1" stop-color="#655E4F"></stop></linearGradient><linearGradient id="paint28_linear_9656_68519" x1="1294.05" x2="1298.4" y1="109.249" y2="109.249" gradientUnits="userSpaceOnUse"><stop></stop><stop offset="1" stop-color="#655E4F"></stop></linearGradient><linearGradient id="paint29_linear_9656_68519" x1="1270.04" x2="1274.39" y1="117.535" y2="117.535" gradientUnits="userSpaceOnUse"><stop></stop><stop offset="1" stop-color="#655E4F"></stop></linearGradient><linearGradient id="paint30_linear_9656_68519" x1="1278.04" x2="1282.39" y1="117.535" y2="117.535" gradientUnits="userSpaceOnUse"><stop></stop><stop offset="1" stop-color="#655E4F"></stop></linearGradient><linearGradient id="paint31_linear_9656_68519" x1="1286.05" x2="1290.4" y1="117.535" y2="117.535" gradientUnits="userSpaceOnUse"><stop></stop><stop offset="1" stop-color="#655E4F"></stop></linearGradient><linearGradient id="paint32_linear_9656_68519" x1="1294.05" x2="1298.4" y1="117.535" y2="117.535" gradientUnits="userSpaceOnUse"><stop></stop><stop offset="1" stop-color="#655E4F"></stop></linearGradient><linearGradient id="paint33_linear_9656_68519" x1="1270.04" x2="1274.39" y1="125.828" y2="125.828" gradientUnits="userSpaceOnUse"><stop></stop><stop offset="1" stop-color="#655E4F"></stop></linearGradient><linearGradient id="paint34_linear_9656_68519" x1="1278.04" x2="1282.39" y1="125.828" y2="125.828" gradientUnits="userSpaceOnUse"><stop></stop><stop offset="1" stop-color="#655E4F"></stop></linearGradient><linearGradient id="paint35_linear_9656_68519" x1="1286.05" x2="1290.4" y1="125.828" y2="125.828" gradientUnits="userSpaceOnUse"><stop></stop><stop offset="1" stop-color="#655E4F"></stop></linearGradient><linearGradient id="paint36_linear_9656_68519" x1="1294.05" x2="1298.4" y1="125.828" y2="125.828" gradientUnits="userSpaceOnUse"><stop></stop><stop offset="1" stop-color="#655E4F"></stop></linearGradient><linearGradient id="paint37_linear_9656_68519" x1="1270.04" x2="1274.39" y1="134.114" y2="134.114" gradientUnits="userSpaceOnUse"><stop></stop><stop offset="1" stop-color="#655E4F"></stop></linearGradient><linearGradient id="paint38_linear_9656_68519" x1="1278.04" x2="1282.39" y1="134.114" y2="134.114" gradientUnits="userSpaceOnUse"><stop></stop><stop offset="1" stop-color="#655E4F"></stop></linearGradient><linearGradient id="paint39_linear_9656_68519" x1="1286.05" x2="1290.4" y1="134.114" y2="134.114" gradientUnits="userSpaceOnUse"><stop></stop><stop offset="1" stop-color="#655E4F"></stop></linearGradient><linearGradient id="paint40_linear_9656_68519" x1="1294.06" x2="1298.4" y1="134.114" y2="134.114" gradientUnits="userSpaceOnUse"><stop></stop><stop offset="1" stop-color="#655E4F"></stop></linearGradient><linearGradient id="paint41_linear_9656_68519" x1="1274.84" x2="1281.27" y1="0" y2="0" gradientUnits="userSpaceOnUse"><stop></stop><stop offset="1" stop-color="#655E4F"></stop></linearGradient><linearGradient id="paint42_linear_9656_68519" x1="1283.56" x2="1289.99" y1="0" y2="0" gradientUnits="userSpaceOnUse"><stop></stop><stop offset="1" stop-color="#655E4F"></stop></linearGradient></defs></svg>